<mxfile host="app.diagrams.net" modified="2021-10-28T04:46:51.742Z" agent="5.0 (Windows NT 10.0; Win64; x64) AppleWebKit/537.36 (KHTML, like Gecko) Chrome/95.0.4638.54 Safari/537.36 Edg/95.0.1020.30" etag="sXBvjpXtJ3wozNiXka_t" version="15.6.1" type="github">
  <diagram name="Page-1" id="13e1069c-82ec-6db2-03f1-153e76fe0fe0">
    <mxGraphModel dx="1065" dy="456" grid="1" gridSize="10" guides="1" tooltips="1" connect="1" arrows="1" fold="1" page="1" pageScale="1" pageWidth="1100" pageHeight="850" background="none" math="0" shadow="0">
      <root>
        <mxCell id="0" />
        <mxCell id="1" parent="0" />
        <mxCell id="Jof9Z6CB4jA2k8mGvWb9-50" value="" style="rounded=0;whiteSpace=wrap;html=1;" vertex="1" parent="1">
          <mxGeometry x="10" y="20" width="860" height="480" as="geometry" />
        </mxCell>
        <mxCell id="Jof9Z6CB4jA2k8mGvWb9-1" value="Actor" style="shape=umlActor;verticalLabelPosition=bottom;verticalAlign=top;html=1;outlineConnect=0;" vertex="1" parent="1">
          <mxGeometry x="30" y="30" width="30" height="60" as="geometry" />
        </mxCell>
        <mxCell id="Jof9Z6CB4jA2k8mGvWb9-4" value="" style="endArrow=none;dashed=1;html=1;rounded=0;" edge="1" parent="1">
          <mxGeometry width="50" height="50" relative="1" as="geometry">
            <mxPoint x="45" y="440" as="sourcePoint" />
            <mxPoint x="44.5" y="120" as="targetPoint" />
          </mxGeometry>
        </mxCell>
        <mxCell id="Jof9Z6CB4jA2k8mGvWb9-5" value="&lt;span style=&quot;color: rgb(50 , 50 , 50) ; font-size: 13px ; background-color: rgba(255 , 255 , 255 , 0.01)&quot;&gt;:TsccAgentConfigController&lt;/span&gt;" style="rounded=0;whiteSpace=wrap;html=1;" vertex="1" parent="1">
          <mxGeometry x="110" y="80" width="170" height="40" as="geometry" />
        </mxCell>
        <mxCell id="Jof9Z6CB4jA2k8mGvWb9-6" value="" style="endArrow=none;dashed=1;html=1;rounded=0;startArrow=none;entryX=0.5;entryY=1;entryDx=0;entryDy=0;" edge="1" parent="1" source="Jof9Z6CB4jA2k8mGvWb9-9" target="Jof9Z6CB4jA2k8mGvWb9-5">
          <mxGeometry width="50" height="50" relative="1" as="geometry">
            <mxPoint x="195" y="661.5999755859375" as="sourcePoint" />
            <mxPoint x="194.5" y="120" as="targetPoint" />
          </mxGeometry>
        </mxCell>
        <mxCell id="Jof9Z6CB4jA2k8mGvWb9-7" value="" style="endArrow=classic;html=1;rounded=0;entryX=-0.16;entryY=0.013;entryDx=0;entryDy=0;entryPerimeter=0;" edge="1" parent="1" target="Jof9Z6CB4jA2k8mGvWb9-9">
          <mxGeometry width="50" height="50" relative="1" as="geometry">
            <mxPoint x="50" y="150" as="sourcePoint" />
            <mxPoint x="200" y="150" as="targetPoint" />
          </mxGeometry>
        </mxCell>
        <mxCell id="Jof9Z6CB4jA2k8mGvWb9-9" value="" style="html=1;points=[];perimeter=orthogonalPerimeter;" vertex="1" parent="1">
          <mxGeometry x="190" y="150" width="10" height="40" as="geometry" />
        </mxCell>
        <mxCell id="Jof9Z6CB4jA2k8mGvWb9-10" value="" style="endArrow=none;dashed=1;html=1;rounded=0;" edge="1" parent="1" target="Jof9Z6CB4jA2k8mGvWb9-9">
          <mxGeometry width="50" height="50" relative="1" as="geometry">
            <mxPoint x="195" y="440" as="sourcePoint" />
            <mxPoint x="194.5" y="120" as="targetPoint" />
          </mxGeometry>
        </mxCell>
        <mxCell id="Jof9Z6CB4jA2k8mGvWb9-11" value="add()" style="text;html=1;align=center;verticalAlign=middle;resizable=0;points=[];autosize=1;strokeColor=none;fillColor=none;" vertex="1" parent="1">
          <mxGeometry x="60" y="130" width="40" height="20" as="geometry" />
        </mxCell>
        <mxCell id="Jof9Z6CB4jA2k8mGvWb9-19" value=":TsccAgentConfigServiceImpl" style="shape=umlLifeline;perimeter=lifelinePerimeter;whiteSpace=wrap;html=1;container=1;collapsible=0;recursiveResize=0;outlineConnect=0;" vertex="1" parent="1">
          <mxGeometry x="300" y="80" width="160" height="360" as="geometry" />
        </mxCell>
        <mxCell id="Jof9Z6CB4jA2k8mGvWb9-33" value="" style="html=1;points=[];perimeter=orthogonalPerimeter;" vertex="1" parent="Jof9Z6CB4jA2k8mGvWb9-19">
          <mxGeometry x="75" y="110" width="10" height="40" as="geometry" />
        </mxCell>
        <mxCell id="Jof9Z6CB4jA2k8mGvWb9-34" value="insert data to db" style="edgeStyle=orthogonalEdgeStyle;html=1;align=left;spacingLeft=2;endArrow=block;rounded=0;entryX=1;entryY=0;" edge="1" target="Jof9Z6CB4jA2k8mGvWb9-33" parent="Jof9Z6CB4jA2k8mGvWb9-19">
          <mxGeometry relative="1" as="geometry">
            <mxPoint x="80" y="90" as="sourcePoint" />
            <Array as="points">
              <mxPoint x="110" y="90" />
            </Array>
          </mxGeometry>
        </mxCell>
        <mxCell id="Jof9Z6CB4jA2k8mGvWb9-22" value="" style="html=1;verticalAlign=bottom;endArrow=block;rounded=0;" edge="1" parent="1" target="Jof9Z6CB4jA2k8mGvWb9-19">
          <mxGeometry width="80" relative="1" as="geometry">
            <mxPoint x="200" y="160" as="sourcePoint" />
            <mxPoint x="430" y="160" as="targetPoint" />
          </mxGeometry>
        </mxCell>
        <mxCell id="Jof9Z6CB4jA2k8mGvWb9-23" value="AddAgentConfig()" style="text;html=1;align=center;verticalAlign=middle;resizable=0;points=[];autosize=1;strokeColor=none;fillColor=none;" vertex="1" parent="1">
          <mxGeometry x="230" y="140" width="110" height="20" as="geometry" />
        </mxCell>
        <mxCell id="Jof9Z6CB4jA2k8mGvWb9-35" value=":YamlManagerController" style="shape=umlLifeline;perimeter=lifelinePerimeter;whiteSpace=wrap;html=1;container=1;collapsible=0;recursiveResize=0;outlineConnect=0;" vertex="1" parent="1">
          <mxGeometry x="480" y="80" width="130" height="360" as="geometry" />
        </mxCell>
        <mxCell id="Jof9Z6CB4jA2k8mGvWb9-42" value="" style="html=1;points=[];perimeter=orthogonalPerimeter;" vertex="1" parent="Jof9Z6CB4jA2k8mGvWb9-35">
          <mxGeometry x="60" y="210" width="10" height="120" as="geometry" />
        </mxCell>
        <mxCell id="Jof9Z6CB4jA2k8mGvWb9-46" value="schedule(TsccYamlTemplate template)" style="html=1;verticalAlign=bottom;endArrow=block;rounded=0;" edge="1" parent="Jof9Z6CB4jA2k8mGvWb9-35" target="Jof9Z6CB4jA2k8mGvWb9-37">
          <mxGeometry width="80" relative="1" as="geometry">
            <mxPoint x="70" y="220" as="sourcePoint" />
            <mxPoint x="150" y="220" as="targetPoint" />
          </mxGeometry>
        </mxCell>
        <mxCell id="Jof9Z6CB4jA2k8mGvWb9-47" value="generateCYaml()" style="html=1;verticalAlign=bottom;endArrow=block;rounded=0;" edge="1" parent="Jof9Z6CB4jA2k8mGvWb9-35" target="Jof9Z6CB4jA2k8mGvWb9-37">
          <mxGeometry width="80" relative="1" as="geometry">
            <mxPoint x="70" y="290" as="sourcePoint" />
            <mxPoint x="150" y="290" as="targetPoint" />
          </mxGeometry>
        </mxCell>
        <mxCell id="Jof9Z6CB4jA2k8mGvWb9-36" value="deployYaml()" style="html=1;verticalAlign=bottom;endArrow=block;rounded=0;" edge="1" parent="1" target="Jof9Z6CB4jA2k8mGvWb9-35">
          <mxGeometry width="80" relative="1" as="geometry">
            <mxPoint x="40" y="290" as="sourcePoint" />
            <mxPoint x="120" y="290" as="targetPoint" />
          </mxGeometry>
        </mxCell>
        <mxCell id="Jof9Z6CB4jA2k8mGvWb9-37" value=":YamlUploadBizImpl" style="shape=umlLifeline;perimeter=lifelinePerimeter;whiteSpace=wrap;html=1;container=1;collapsible=0;recursiveResize=0;outlineConnect=0;" vertex="1" parent="1">
          <mxGeometry x="710" y="80" width="110" height="360" as="geometry" />
        </mxCell>
        <mxCell id="Jof9Z6CB4jA2k8mGvWb9-45" value="" style="html=1;points=[];perimeter=orthogonalPerimeter;" vertex="1" parent="Jof9Z6CB4jA2k8mGvWb9-37">
          <mxGeometry x="50" y="220" width="10" height="110" as="geometry" />
        </mxCell>
        <mxCell id="Jof9Z6CB4jA2k8mGvWb9-48" value="return" style="html=1;verticalAlign=bottom;endArrow=open;dashed=1;endSize=8;rounded=0;" edge="1" parent="1" target="Jof9Z6CB4jA2k8mGvWb9-35">
          <mxGeometry relative="1" as="geometry">
            <mxPoint x="760" y="400" as="sourcePoint" />
            <mxPoint x="680" y="400" as="targetPoint" />
          </mxGeometry>
        </mxCell>
        <mxCell id="Jof9Z6CB4jA2k8mGvWb9-49" value="return" style="html=1;verticalAlign=bottom;endArrow=open;dashed=1;endSize=8;rounded=0;" edge="1" parent="1">
          <mxGeometry relative="1" as="geometry">
            <mxPoint x="540" y="410" as="sourcePoint" />
            <mxPoint x="40" y="410" as="targetPoint" />
          </mxGeometry>
        </mxCell>
      </root>
    </mxGraphModel>
  </diagram>
</mxfile>
